# xmcd CD database file
#
# Track frame offsets:
#	150
#	42439
#	78087
#	97383
#	115653
#	152837
#
# Disc length: 2702 seconds
#
# Revision: 0
# Processed by: cddbd v1.5.1PL0 Copyright (c) Steve Scherf et al.
# Submitted via: CDex 1.51
#
DISCID=440a8c06
DTITLE=Chick Corea - Again And Again
DYEAR=1900
DGENRE=Jazz
TTITLE0=Quintet #3
TTITLE1=Waltze
TTITLE2=Again And Again
TTITLE3=1-2-1234
TTITLE4=Diddle, Diddle
TTITLE5=Twang
EXTD=
EXTT0=
EXTT1=
EXTT2=
EXTT3=
EXTT4=
EXTT5=
PLAYORDER=
